<?xml version="1.0"?>
<svg xmlns="http://www.w3.org/2000/svg" viewBox="0 0 16 16">
    <path style="line-height:normal;text-indent:0;text-align:start;text-decoration-line:none;text-decoration-style:solid;text-decoration-color:#fff ;text-transform:none;block-progression:tb;isolation:auto;mix-blend-mode:normal" d="M 8 1 C 4.1399291 1 1 4.1399291 1 8 C 1 11.860071 4.1399291 15 8 15 C 11.860071 15 15 11.860071 15 8 C 15 4.1399291 11.860071 1 8 1 z M 8 2 C 11.319631 2 14 4.6803692 14 8 C 14 11.319631 11.319631 14 8 14 C 4.6803692 14 2 11.319631 2 8 C 2 4.6803692 4.6803692 2 8 2 z M 5 7 A 1 1 0 0 0 4 8 A 1 1 0 0 0 5 9 A 1 1 0 0 0 6 8 A 1 1 0 0 0 5 7 z M 8 7 A 1 1 0 0 0 7 8 A 1 1 0 0 0 8 9 A 1 1 0 0 0 9 8 A 1 1 0 0 0 8 7 z M 11 7 A 1 1 0 0 0 10 8 A 1 1 0 0 0 11 9 A 1 1 0 0 0 12 8 A 1 1 0 0 0 11 7 z" font-weight="400" font-family="sans-serif" white-space="normal" overflow="visible"/>
</svg>
