<svg width="118" height="118" viewBox="0 0 118 118" fill="none" xmlns="http://www.w3.org/2000/svg">
<path d="M59.0001 3.93333L60.0807 0.151339C59.3744 -0.0504463 58.6258 -0.0504463 57.9196 0.151339L59.0001 3.93333ZM3.93354 19.6667L2.85297 15.8847C1.00775 16.4119 -0.187656 18.1937 0.0242682 20.1011L3.93354 19.6667ZM11.8002 90.4667L7.89094 90.9009C8.03828 92.2272 8.84776 93.3883 10.0411 93.9846L11.8002 90.4667ZM59.0001 114.067L57.2411 117.585C58.3484 118.138 59.6518 118.138 60.7592 117.585L59.0001 114.067ZM106.2 90.4667L107.959 93.9846C109.152 93.3883 109.962 92.2272 110.109 90.9009L106.2 90.4667ZM114.067 19.6667L117.976 20.1011C118.188 18.1937 116.992 16.4119 115.148 15.8847L114.067 19.6667ZM59.0001 23.6L62.6037 22.0234L59.0001 13.7867L55.3966 22.0234L59.0001 23.6ZM57.9196 0.151339L2.85297 15.8847L5.01411 23.4486L60.0807 7.71533L57.9196 0.151339ZM0.0242682 20.1011L7.89094 90.9009L15.7094 90.0324L7.84281 19.2323L0.0242682 20.1011ZM10.0411 93.9846L57.2411 117.585L60.7592 110.549L13.5593 86.9487L10.0411 93.9846ZM60.7592 117.585L107.959 93.9846L104.441 86.9487L57.2411 110.549L60.7592 117.585ZM110.109 90.9009L117.976 20.1011L110.158 19.2323L102.291 90.0324L110.109 90.9009ZM115.148 15.8847L60.0807 0.151339L57.9196 7.71533L112.986 23.4486L115.148 15.8847ZM35.0704 88.1098L62.6037 25.1766L55.3966 22.0234L27.8633 84.9568L35.0704 88.1098ZM55.3966 25.1766L82.9297 88.1098L90.1371 84.9568L62.6037 22.0234L55.3966 25.1766ZM39.3335 70.8H78.6668V62.9333H39.3335V70.8Z" fill="#B076AF"/>
</svg>
