<svg width="118" height="116" viewBox="0 0 118 116" fill="none" xmlns="http://www.w3.org/2000/svg">
<g clip-path="url(#clip0_63_24)">
<path d="M107.04 0H10.9554C8.65385 0 6.92709 1.91461 7.13015 4.17695L15.9063 100.857C16.1097 103.118 18.0986 105.484 20.3295 106.095L54.9264 115.542C57.1543 116.149 60.7958 116.153 63.027 115.55L97.6667 106.116C99.8981 105.507 101.887 103.162 102.09 100.898L110.87 4.17695C111.073 1.91461 109.354 0 107.04 0ZM90.3766 34.8989C90.3751 34.9137 90.3633 34.9253 90.3485 34.9277C90.3335 34.9302 90.319 34.9226 90.3124 34.9088L63.2067 45.8284C62.8207 45.9839 62.6005 46.3863 62.6808 46.7887C62.7615 47.1912 63.1205 47.4815 63.5379 47.4815H84.6217C85.7433 47.4815 86.8118 47.9497 87.5619 48.7696C88.3117 49.5896 88.6722 50.684 88.5531 51.7802L85.2588 82.1598C85.0971 83.6503 84.0783 84.9165 82.6398 85.4141L60.2608 93.1548C59.418 93.4466 58.4992 93.4488 57.6544 93.161L35.38 85.576C33.9328 85.0831 32.9054 83.8132 32.7427 82.3161L31.2494 68.5577C31.1709 67.8354 31.4083 67.1143 31.9022 66.5743C32.3963 66.0341 33.1002 65.7256 33.8393 65.7256H40.0376C41.3695 65.7256 42.4866 66.7131 42.6275 68.0148L43.5438 76.4717L58.9665 81.7418L74.46 76.4236L76.355 58.8844H32.5485C31.2206 58.8844 30.1052 57.9023 29.9596 56.6048L29.1255 49.1711C28.9982 48.0372 29.649 46.9576 30.7214 46.5231L58.758 35.1599C59.0761 35.031 59.2568 34.6995 59.1901 34.3678C59.1232 34.0363 58.8276 33.7975 58.4839 33.7975H28.9653C28.0766 33.7975 27.3313 33.1378 27.2386 32.2694L26.3847 24.2795C26.3333 23.7987 26.492 23.3188 26.8212 22.9593C27.1503 22.6 27.6194 22.3947 28.1112 22.3947H89.8762C90.3708 22.3947 90.8419 22.6022 91.1713 22.9647C91.5007 23.3275 91.6571 23.811 91.6012 24.294L90.3766 34.8989Z" fill="#B076AF"/>
</g>
<defs>
<clipPath id="clip0_63_24">
<rect width="118" height="116" fill="white"/>
</clipPath>
</defs>
</svg>
