<svg width="118" height="118" viewBox="0 0 118 118" fill="none" xmlns="http://www.w3.org/2000/svg">
<g id="HTML5_Badge 1">
<path id="Vector" d="M16.3633 106.016L6.91406 0H110.855L101.406 106.016L58.7695 118" fill="#B076AF"/>
<path id="Vector_2" d="M59 108.781L93.3398 99.332L101.406 8.52734H59" fill="#B076AF"/>
<path id="Vector_3" d="M59 47.9375H41.7148L40.5625 34.5703H59V21.6641H58.7695H26.2734L26.5039 25.1211L29.7305 61.0742H59V47.9375ZM59 81.8164H58.7695L44.25 77.8984L43.3281 67.5273H36.4141H30.4219L32.0352 88.0391L58.7695 95.4141H59V81.8164Z" fill="#232129"/>
<path id="Vector_4" d="M58.7695 47.9375V61.0742H74.9023L73.2891 77.8984L58.7695 81.8164V95.4141L85.5039 88.0391L85.7344 85.7344L88.7305 51.3945L89.1914 47.9375H85.5039H58.7695ZM58.7695 21.6641V29.7305V34.5703H90.3438L90.5742 31.8047L91.2656 25.1211L91.4961 21.6641H58.7695Z" fill="#232129"/>
</g>
</svg>
