<svg width="118" height="118" viewBox="0 0 118 118" fill="none" xmlns="http://www.w3.org/2000/svg">
<path d="M0 0H118V118H0V0ZM108.331 89.857C107.472 84.4749 103.965 79.9516 93.5674 75.7298C89.9488 74.0319 85.9302 72.8584 84.724 70.1313C84.2782 68.5056 84.2127 67.6271 84.5011 66.6634C85.2419 63.4906 89.0048 62.54 91.9548 63.4184C93.8756 64.0084 95.6456 65.4834 96.7534 67.85C101.834 64.5263 101.834 64.5263 105.381 62.3171C104.05 60.2587 103.388 59.3606 102.503 58.4756C99.4019 55.0142 95.2719 53.2442 88.5656 53.395L85.1042 53.8342C81.7806 54.6471 78.6077 56.4237 76.6934 58.7771C71.0884 65.1229 72.7077 76.1821 79.4927 80.7644C86.199 85.7794 96.0192 86.8808 97.2713 91.6008C98.4513 97.3566 92.9971 99.1987 87.6019 98.5366C83.6227 97.645 81.4069 95.6587 78.9748 91.9679L69.9806 97.1337C71.0098 99.4871 72.1898 100.523 73.9598 102.588C82.5148 111.215 103.906 110.776 107.741 97.645C107.878 97.2058 108.921 94.1837 108.108 89.5358L108.331 89.857ZM64.1658 54.2341H53.1131C53.1131 63.7593 53.0672 73.2321 53.0672 82.777C53.0672 88.8343 53.3753 94.3934 52.3854 96.1044C50.7662 99.4937 46.5772 99.061 44.6827 98.4579C42.7357 97.5008 41.7458 96.17 40.5986 94.2558C40.2904 93.7444 40.061 93.2987 39.9758 93.2987L31.0078 98.8316C32.509 101.932 34.6986 104.594 37.524 106.285C41.7261 108.796 47.3704 109.609 53.2836 108.285C57.1382 107.17 60.4619 104.882 62.186 101.342C64.7033 96.7731 64.1658 91.1616 64.1461 84.8944C64.1986 74.7923 64.1461 64.6837 64.1461 54.5094L64.1658 54.2341Z" fill="#B076AF"/>
</svg>
