<svg width="147" height="131" viewBox="0 0 147 131" fill="none" xmlns="http://www.w3.org/2000/svg">
<path d="M120.86 42.4589C119.294 41.9243 117.717 41.4264 116.128 40.9653C116.392 39.894 116.635 38.8166 116.857 37.7331C120.44 20.3175 118.097 6.28711 110.101 1.66846C102.446 -2.7635 89.8898 1.85516 77.2239 12.8983C75.9785 13.9879 74.7586 15.1102 73.5643 16.2651C72.7681 15.4979 71.9515 14.747 71.1144 14.0124C57.839 2.20408 44.533 -2.76962 36.5464 1.86434C28.8904 6.30548 26.6151 19.4942 29.8398 36.0008C30.1623 37.6332 30.5247 39.2584 30.9269 40.8765C29.0435 41.4122 27.2245 41.9845 25.4851 42.5905C9.94046 48.0233 0 56.5414 0 65.3747C0 74.5018 10.6693 83.6534 26.8784 89.2025C28.1932 89.6494 29.5202 90.0647 30.8595 90.4483C30.4247 92.1806 30.0398 93.9324 29.705 95.7036C26.6426 111.925 29.0313 124.802 36.6719 129.216C44.5636 133.773 57.8023 129.09 70.7071 117.796C71.7279 116.902 72.7487 115.959 73.7695 114.965C75.0598 116.212 76.3868 117.422 77.7506 118.595C90.2451 129.363 102.583 133.712 110.212 129.286C118.097 124.713 120.661 110.879 117.332 94.0477C117.077 92.7622 116.783 91.4501 116.45 90.1116C117.381 89.8361 118.292 89.5515 119.184 89.2576C136.028 83.6657 147 74.6242 147 65.3839C146.994 56.5077 136.735 47.9346 120.86 42.4589ZM81.355 17.6425C92.205 8.18171 102.348 4.44761 106.972 7.11657C111.893 9.96 113.807 21.4255 110.714 36.4629C110.51 37.4424 110.289 38.4187 110.052 39.3921C103.577 37.9201 97.0115 36.8812 90.3982 36.2824C86.6116 30.8308 82.4608 25.6412 77.9741 20.7491C79.0725 19.684 80.1974 18.6484 81.3489 17.6425H81.355ZM43.403 72.9225C44.7321 75.4935 46.1214 78.0329 47.5709 80.5407C49.047 83.0994 50.5853 85.6205 52.1859 88.1037C47.6354 87.6093 43.1134 86.8809 38.638 85.9214C39.9364 81.7221 41.535 77.3605 43.403 72.9225ZM43.403 58.1299C41.5656 53.7867 40.0099 49.5139 38.7329 45.3881C42.9283 44.4484 47.3994 43.6802 52.0603 43.0986C50.4985 45.535 48.9959 48.007 47.5525 50.5148C46.1091 53.0226 44.7229 55.5609 43.3938 58.1299H43.403ZM46.741 65.5277C48.6764 61.4937 50.7609 57.5371 52.9944 53.6582C55.2258 49.7812 57.6012 45.9931 60.1205 42.2936C64.4936 41.9631 68.9769 41.7886 73.5061 41.7886C78.0354 41.7886 82.5463 41.9631 86.9163 42.2967C89.409 45.988 91.7701 49.7629 93.9995 53.6214C96.2289 57.48 98.341 61.4182 100.336 65.4359C98.3675 69.4842 96.2606 73.4571 94.0148 77.3544C91.7875 81.2314 89.4397 85.0308 86.9714 88.7526C82.6075 89.0587 78.0905 89.227 73.4969 89.227C68.9034 89.227 64.4721 89.0832 60.1879 88.8047C57.6502 85.093 55.2554 81.2885 53.0035 77.3911C50.7517 73.4938 48.6611 69.5393 46.7318 65.5277H46.741ZM99.4505 80.4978C100.931 77.9309 102.352 75.3302 103.713 72.696C105.58 76.9262 107.228 81.2496 108.65 85.649C104.122 86.6681 99.5434 87.4497 94.9335 87.9905C96.4892 85.5235 97.9949 83.026 99.4505 80.4978ZM103.652 58.133C102.297 55.5517 100.887 53.0011 99.423 50.4811C97.9939 47.9958 96.5045 45.5411 94.955 43.117C99.6435 43.7108 104.142 44.5004 108.359 45.4646C107.003 49.7635 105.432 53.9916 103.652 58.133ZM73.5674 25.2453C76.6253 28.5849 79.5127 32.0765 82.2186 35.7069C76.4307 35.4315 70.6387 35.4315 64.8427 35.7069C67.6999 31.93 70.6244 28.4254 73.5674 25.2453ZM39.7067 7.30328C44.6249 4.45067 55.4994 8.52757 66.9618 18.7107C67.6937 19.3626 68.4318 20.0451 69.1667 20.7522C64.657 25.6436 60.4768 30.8286 56.6539 36.2732C50.0552 36.8674 43.5022 37.8898 37.0363 39.3339C36.6627 37.8321 36.3259 36.3201 36.0257 34.7979C33.2543 20.6481 35.0887 9.98142 39.7067 7.30328ZM32.5377 84.388C31.3128 84.0391 30.1031 83.6606 28.9088 83.2525C21.7428 80.8039 15.8233 77.6085 11.7595 74.1284C8.12141 71.0095 6.27786 67.8967 6.27786 65.3747C6.27786 60.0153 14.2584 53.1776 27.5675 48.5406C29.2395 47.9591 30.9259 47.4275 32.6265 46.946C34.6031 53.2948 36.997 59.5063 39.7925 65.54C36.9637 71.657 34.5402 77.9532 32.5377 84.388ZM66.5699 113.058C60.8647 118.053 55.1503 121.594 50.1127 123.379C45.5865 124.98 41.9821 125.025 39.8047 123.767C35.1683 121.089 33.239 110.747 35.8696 96.8758C36.1819 95.2434 36.5392 93.611 36.9414 91.9786C43.472 93.3847 50.0908 94.3449 56.7519 94.8527C60.6122 100.326 64.8268 105.54 69.3689 110.462C68.4563 111.359 67.5223 112.222 66.5699 113.058ZM73.7419 105.951C70.7653 102.734 67.7948 99.1744 64.8978 95.3485C67.7131 95.4587 70.5795 95.5138 73.4969 95.5138C76.4919 95.5138 79.4563 95.4495 82.3778 95.3179C79.6818 99.0065 76.7994 102.555 73.7419 105.951ZM111.875 114.702C110.999 119.427 109.238 122.58 107.061 123.841C102.427 126.528 92.5204 123.036 81.8388 113.826C80.6139 112.773 79.3889 111.644 78.1426 110.459C82.5961 105.518 86.7121 100.282 90.4625 94.7884C97.1604 94.2212 103.811 93.1934 110.368 91.7124C110.668 92.9244 110.933 94.112 111.164 95.275C112.637 102.713 112.848 109.44 111.875 114.702ZM117.203 83.2861C116.401 83.5524 115.574 83.8095 114.735 84.0605C112.679 77.6817 110.192 71.45 107.29 65.4083C110.083 59.4473 112.473 53.3059 114.444 47.0255C115.948 47.4632 117.408 47.9223 118.814 48.409C132.417 53.0981 140.716 60.0398 140.716 65.3747C140.716 71.0677 131.752 78.4563 117.203 83.2861Z" fill="#B076AF"/>
<path d="M73.4593 78.9999C75.9333 79.0086 78.354 78.2243 80.415 76.7462C82.4759 75.2681 84.0844 73.1627 85.0368 70.6967C85.9891 68.2307 86.2425 65.5149 85.7648 62.8933C85.287 60.2716 84.0998 57.8621 82.3532 55.9696C80.6067 54.0772 78.3795 52.7871 75.9536 52.2626C73.5278 51.7382 71.0124 52.0029 68.7259 53.0234C66.4395 54.0439 64.4848 55.7742 63.1095 57.9952C61.7342 60.2162 61 62.828 61 65.4999C60.9966 67.2701 61.3162 69.0237 61.9406 70.6604C62.5651 72.2971 63.482 73.7849 64.6391 75.0386C65.7962 76.2924 67.1708 77.2875 68.6842 77.9672C70.1976 78.647 71.8202 78.9979 73.4593 78.9999Z" fill="#B076AF"/>
</svg>
