<svg width="96" height="96" viewBox="0 0 96 96" fill="none" xmlns="http://www.w3.org/2000/svg">
<g id="people 1">
<g id="Group">
<path id="Vector" d="M81.6734 0H42.8842C38.4249 0 34.7969 3.62958 34.7969 8.09083V29.3062C34.7969 33.7671 38.4249 37.3964 42.8842 37.3964H46.8933V43.6486C46.8933 44.9787 47.6946 46.1776 48.9232 46.6864C49.3301 46.8548 49.7568 46.9366 50.1805 46.9366C51.0365 46.9366 51.8781 46.602 52.5072 45.9724L61.0754 37.3967H81.6734C86.1327 37.3967 89.761 33.7671 89.761 29.3065V8.09083C89.7607 3.62958 86.1327 0 81.6734 0ZM83.1848 29.3062C83.1848 30.1269 82.4925 30.8205 81.6734 30.8205H59.713C58.8406 30.8205 58.0037 31.1674 57.387 31.7844L53.4694 35.7059V34.1088C53.4694 32.2928 51.9971 30.8205 50.1815 30.8205H42.8845C42.0655 30.8205 41.3731 30.1269 41.3731 29.3062V8.09083C41.3731 7.26949 42.0655 6.57551 42.8845 6.57551H81.6737C82.4928 6.57551 83.1851 7.26917 83.1851 8.09083V29.3062H83.1848Z" fill="#D08ACE" fill-opacity="0.62"/>
<path id="Vector_2" d="M30.7969 70.6733C38.3877 69.5022 44.2182 62.9212 44.2182 55.0017C44.2182 46.2576 37.11 39.1436 28.3727 39.1436C19.6347 39.1436 12.5256 46.2576 12.5256 55.0017C12.5256 62.9205 18.357 69.5019 25.9481 70.6733C20.3513 71.1581 15.4421 73.3312 11.9421 76.9136C8.06658 80.8809 6.09713 86.3704 6.24711 92.7888C6.2888 94.5747 7.7482 96.0001 9.53405 96.0001H47.2087C48.9946 96.0001 50.4543 94.5743 50.4957 92.7888C50.6447 86.3694 48.6746 80.8793 44.7984 76.9123C41.2994 73.3305 36.3918 71.1584 30.7969 70.6733ZM19.1014 55.0017C19.1014 49.8836 23.2604 45.7197 28.373 45.7197C33.4843 45.7197 37.643 49.8836 37.643 55.0017C37.643 60.1194 33.4846 64.2829 28.373 64.2829C23.2604 64.2829 19.1014 60.1194 19.1014 55.0017ZM12.9846 89.4243C13.4103 86.2201 14.636 83.5667 16.6461 81.509C19.3952 78.6952 23.5594 77.1453 28.372 77.1453C33.183 77.1453 37.3463 78.6946 40.0947 81.5073C42.1052 83.565 43.3316 86.2194 43.7576 89.4243H12.9846Z" fill="#D08ACE" fill-opacity="0.62"/>
</g>
</g>
</svg>
